<svg id="Capa_1" data-name="Capa 1" xmlns="http://www.w3.org/2000/svg" viewBox="0 0 256 256"><defs><style>.cls-1{fill:#10216f;}</style></defs><title>ICONOS FINALES-TRAZADOS</title><path class="cls-1" d="M0,0V256H256V0ZM241,241H15V60.5H30.5v15h15v-15h30v15h15v-15h30v15h15v-15h30v15h15v-15h30v15h15v-15H241Zm0-195.5H225.5v-15h-15v15h-30v-15h-15v15h-30v-15h-15v15h-30v-15h-15v15h-30v-15h-15v15H15V15H241Z"/><rect class="cls-1" x="45.5" y="105.5" width="30" height="15"/><rect class="cls-1" x="45.5" y="135.5" width="30" height="15"/><rect class="cls-1" x="45.5" y="195.5" width="30" height="15"/><rect class="cls-1" x="180.5" y="105.5" width="30" height="15"/><rect class="cls-1" x="180.5" y="135.5" width="30" height="15"/><rect class="cls-1" x="45.5" y="165.5" width="30" height="15"/><rect class="cls-1" x="180.5" y="165.5" width="30" height="15"/><rect class="cls-1" x="180.5" y="195.5" width="30" height="15"/><rect class="cls-1" x="135.5" y="105.5" width="30" height="15"/><rect class="cls-1" x="135.5" y="135.5" width="30" height="15"/><rect class="cls-1" x="135.5" y="165.5" width="30" height="15"/><rect class="cls-1" x="135.5" y="195.5" width="30" height="15"/><rect class="cls-1" x="90.5" y="105.5" width="30" height="15"/><rect class="cls-1" x="90.5" y="135.5" width="30" height="15"/><rect class="cls-1" x="90.5" y="165.5" width="30" height="15"/><rect class="cls-1" x="90.5" y="195.5" width="30" height="15"/></svg>