<svg id="Capa_1" data-name="Capa 1" xmlns="http://www.w3.org/2000/svg" viewBox="0 0 256 256"><defs><style>.cls-1{fill:#10216f;}</style></defs><title>ICONOS FINALES-TRAZADOS</title><path class="cls-1" d="M256,120.85,136.82,1.67V79.75A144.57,144.57,0,0,0,0,224.11v30.22l14.53-26.49a129.17,129.17,0,0,1,113.29-67c3,0,6,.11,9,.32V240ZM127.82,145.33a144.72,144.72,0,0,0-109,49.45C32.17,137.69,83.48,95,144.57,95h7.74v-56l81.78,81.78-81.78,81.78V147.27l-6.79-.85A145.38,145.38,0,0,0,127.82,145.33Z"/></svg>