<?xml version="1.0" encoding="utf-8"?>
<!-- Generator: Adobe Illustrator 18.0.0, SVG Export Plug-In . SVG Version: 6.00 Build 0)  -->
<!DOCTYPE svg PUBLIC "-//W3C//DTD SVG 1.1//EN" "http://www.w3.org/Graphics/SVG/1.1/DTD/svg11.dtd">
<svg version="1.1" id="Capa_1" xmlns="http://www.w3.org/2000/svg" xmlns:xlink="http://www.w3.org/1999/xlink" x="0px" y="0px"
	 viewBox="645.6 -11 256 256" enable-background="new 645.6 -11 256 256" xml:space="preserve">
<g>
	<path fill="#001D72" d="M697.2,168.7c-25.8-19.1-39.8-50.4-36.8-82.3c2.2-22.8,12.7-43.8,29.7-59.2c16.9-15.3,38.7-23.7,61.3-23.7
		c2.9,0,5.8,0.1,8.7,0.4c37.9,3.6,68.3,30,78.9,64.4c4.2-4.3,8.2-8.3,11.6-11.8c-4.1-10.4-9.9-20.3-17.2-29.2
		c-18.1-21.9-43.7-35.5-71.9-38.2c-3.4-0.3-6.8-0.5-10.1-0.5c-26.3,0-51.6,9.8-71.3,27.6C660.5,34,648.2,58.5,645.7,85
		c-3.4,35.9,11.2,70.4,39.3,92.9l-28.4-2.7l-1.4,14.8l54.5,5.2l4.7-49.5l-14.8-1.4L697.2,168.7z"/>
	<path fill="#001D72" d="M868.6,59.5L742.2,185l-16.5,49.1l49.4-16.3L901.6,92.2L868.6,59.5z M766.9,204.6l-17.3,5.7l5.8-17.2
		l4.5-4.5l11.6,11.5L766.9,204.6z M782.2,189.5L770.7,178l75.7-75.2l11.6,11.5L782.2,189.5z M857.1,92.2l11.5-11.5l11.5,11.5
		l-11.5,11.5L857.1,92.2z"/>
</g>
</svg>
