<svg id="Capa_1" data-name="Capa 1" xmlns="http://www.w3.org/2000/svg" viewBox="0 0 256 256"><defs><style>.cls-1{fill:#10216f;}</style></defs><title>ICONOS FINALES-TRAZADOS</title><path class="cls-1" d="M128.25,251a123,123,0,1,1,123-123A123.12,123.12,0,0,1,128.25,251Zm0-231a108,108,0,1,0,108,108A108.1,108.1,0,0,0,128.25,20Z"/><polygon class="cls-1" points="159.1 173.69 116.57 137.8 116.57 69.53 131.57 69.53 131.57 130.83 168.77 162.22 159.1 173.69"/><rect class="cls-1" x="217" y="-6.9" width="15" height="69.12" transform="translate(62.23 185.25) rotate(-51.19)"/><rect class="cls-1" x="-3.06" y="19.77" width="69.12" height="15" transform="translate(-10.14 25.77) rotate(-38.82)"/></svg>