<svg id="Capa_1" data-name="Capa 1" xmlns="http://www.w3.org/2000/svg" viewBox="0 0 256 256"><defs><style>.cls-1{fill:#10216f;}</style></defs><title>ICONOS FINALES-TRAZADOS</title><rect class="cls-1" x="118.82" y="63.13" width="18.37" height="18.37"/><path class="cls-1" d="M137.68,82H118.32V62.63h19.36Zm-18.36-1h17.36V63.63H119.32Z"/><rect class="cls-1" x="118.82" y="98.47" width="18.37" height="103.65"/><path class="cls-1" d="M137.68,202.62H118.32V98h19.36Zm-18.36-1h17.36V99H119.32Z"/><path class="cls-1" d="M128,0A128,128,0,1,0,256,128,128.17,128.17,0,0,0,128,0Zm0,241A113,113,0,1,1,241,128,113.15,113.15,0,0,1,128,241Z"/></svg>