<svg id="Capa_1" data-name="Capa 1" xmlns="http://www.w3.org/2000/svg" viewBox="0 0 256 256"><defs><style>.cls-1{fill:#10216f;}</style></defs><title>ICONOS FINALES-TRAZADOS</title><path class="cls-1" d="M15.48,128a47.32,47.32,0,0,1,46.9-47.15h51.28V65.44H62.38C28.09,65.44.2,93.51.2,128s27.89,62.56,62.18,62.56h51.28v-15.4H62.37A47.32,47.32,0,0,1,15.48,128Z"/><path class="cls-1" d="M193.62,65.44H142.34v15.4h51.32a47.17,47.17,0,0,1,0,94.32H142.34v15.4h51.28c34.29,0,62.18-28.07,62.18-62.56S227.91,65.44,193.62,65.44Z"/><rect class="cls-1" x="65.44" y="120.2" width="123.94" height="15.59"/></svg>