<?xml version="1.0" encoding="utf-8"?>
<!-- Generator: Adobe Illustrator 18.0.0, SVG Export Plug-In . SVG Version: 6.00 Build 0)  -->
<!DOCTYPE svg PUBLIC "-//W3C//DTD SVG 1.1//EN" "http://www.w3.org/Graphics/SVG/1.1/DTD/svg11.dtd">
<svg version="1.1" id="Capa_1" xmlns="http://www.w3.org/2000/svg" xmlns:xlink="http://www.w3.org/1999/xlink" x="0px" y="0px"
	 viewBox="0 0 256 256" enable-background="new 0 0 256 256" xml:space="preserve">
<g>
	<rect x="82.2" y="71.8" fill="#001978" width="173.9" height="18"/>
	<rect x="82.2" y="170.4" fill="#001978" width="173.9" height="18"/>
	<path fill="#001978" d="M31.7,108.4c17.5,0,31.8-14.2,31.8-31.8S49.2,44.9,31.7,44.9S-0.1,59.1-0.1,76.6S14.2,108.4,31.7,108.4z
		 M31.7,58.9c9.8,0,17.8,8,17.8,17.8s-8,17.8-17.8,17.8s-17.8-8-17.8-17.8S21.9,58.9,31.7,58.9z"/>
	<path fill="#001978" d="M31.7,147.6c-17.5,0-31.8,14.2-31.8,31.8s14.2,31.8,31.8,31.8s31.8-14.2,31.8-31.8S49.2,147.6,31.7,147.6z
		 M31.7,197.1c-9.8,0-17.8-8-17.8-17.8s8-17.8,17.8-17.8s17.8,8,17.8,17.8S41.5,197.1,31.7,197.1z"/>
</g>
</svg>
