<svg id="Capa_1" data-name="Capa 1" xmlns="http://www.w3.org/2000/svg" viewBox="0 0 256 256"><defs><style>.cls-1{fill:#10216f;}</style></defs><title>ICONOS FINALES-TRAZADOS</title><path class="cls-1" d="M222.76,124.61V30.08H102.61l-7.38-9H-.89V203.64H114.18a72,72,0,1,0,108.58-79Zm-13.1-81.28V57H124.72L113.49,43.33ZM12.23,190.39v-156H89.11l29.48,35.9h91.07v47.67A71.95,71.95,0,0,0,111.72,185c0,1.8.09,3.59.22,5.36ZM183.71,242a57,57,0,1,1,57-57A57.05,57.05,0,0,1,183.71,242Z"/><polygon class="cls-1" points="191.68 177.03 191.68 146.66 175.74 146.66 175.74 177.03 145.37 177.03 145.37 192.81 175.74 192.81 175.74 223.4 191.68 223.4 191.68 192.81 222.04 192.81 222.04 177.03 191.68 177.03"/></svg>