<svg id="Capa_1" data-name="Capa 1" xmlns="http://www.w3.org/2000/svg" viewBox="0 0 256 256"><defs><style>.cls-1{fill:#10216f;}</style></defs><title>ICONOS FINALES-TRAZADOS</title><g id="keyboard-backspace"><polygon class="cls-1" points="136.94 95.36 136.94 28.3 163.76 55.12 174.18 44.69 129.5 0 84.81 44.69 95.23 55.12 122.05 28.3 122.05 95.36 136.94 95.36"/></g><g id="keyboard-backspace-2" data-name="keyboard-backspace"><polygon class="cls-1" points="162.14 143.33 229.19 143.33 202.38 170.14 212.81 180.57 257.5 135.88 212.81 91.19 202.38 101.62 229.19 128.43 162.14 128.43 162.14 143.33"/></g><g id="keyboard-backspace-3" data-name="keyboard-backspace"><polygon class="cls-1" points="122.05 160.64 122.05 227.7 95.23 200.88 84.81 211.31 129.5 256 174.18 211.31 163.76 200.88 136.94 227.7 136.94 160.64 122.05 160.64"/></g><g id="keyboard-backspace-4" data-name="keyboard-backspace"><polygon class="cls-1" points="93.86 128.43 26.81 128.43 53.62 101.62 43.19 91.19 -1.5 135.88 43.19 180.57 53.62 170.14 26.81 143.33 93.86 143.33 93.86 128.43"/></g></svg>