<svg id="Capa_1" data-name="Capa 1" xmlns="http://www.w3.org/2000/svg" viewBox="0 0 256 256"><defs><style>.cls-1{fill:#10216f;}</style></defs><title>ICONOS FINALES-TRAZADOS</title><path class="cls-1" d="M220,156.58l.25-.8L254.6,149V107l-34.32-6.76-.25-.8a96.82,96.82,0,0,0-6.76-16.29l-.39-.73L232,53.68,202.32,24,173.6,43.12l-.73-.39A96.14,96.14,0,0,0,156.58,36l-.8-.25L149,1.4H107l-6.76,34.32-.8.25a96.14,96.14,0,0,0-16.29,6.76l-.73.39L53.68,24,24,53.68,43.12,82.4l-.39.73A96.82,96.82,0,0,0,36,99.42l-.25.8L1.4,107v42l34.32,6.76.25.8a96.82,96.82,0,0,0,6.76,16.29l.39.73L24,202.32,53.68,232,82.4,212.88l.73.39A96.14,96.14,0,0,0,99.42,220l.8.25L107,254.6h42l6.76-34.32.8-.25a96.14,96.14,0,0,0,16.29-6.76l.73-.39L202.32,232l29.7-29.7L212.88,173.6l.39-.73A96.14,96.14,0,0,0,220,156.58Zm-7.41,43.82L200.4,212.62l-26.3-17.54-.07,0c-13.33,8.08-17.51,9.57-31.13,12.93l-.08,0-6.2,31.45H119.38l-6.2-31.45-.08,0C98,204.32,94,202.4,82,195.12l-.07,0L55.6,212.62,43.38,200.4l17.54-26.3,0-.07C52.8,160.71,51.32,156.53,48,142.9l0-.08-31.45-6.2V119.38l31.45-6.2,0-.08C51.26,99.69,52.85,95.21,60.88,82l0-.07L43.38,55.6,55.6,43.39,81.9,60.92l.07,0C95.3,52.8,99.48,51.31,113.1,48l.08,0,6.2-31.45h17.24l6.2,31.45.08,0C158,51.68,162,53.6,174,60.88l.07,0,26.3-17.53L212.62,55.6,195.08,81.9l0,.07c8.08,13.33,9.56,17.51,12.93,31.13l0,.08,31.45,6.2v17.24l-31.45,6.2,0,.08C204.31,158,202.4,162,195.12,174l0,.07Z"/><path class="cls-1" d="M128,76a52,52,0,1,0,52,52A52.06,52.06,0,0,0,128,76Zm0,88.92A36.92,36.92,0,1,1,164.92,128,37,37,0,0,1,128,164.92Z"/></svg>