<svg id="Capa_1" data-name="Capa 1" xmlns="http://www.w3.org/2000/svg" viewBox="0 0 256 256"><defs><style>.cls-1{fill:#10216f;}</style></defs><title>ICONOS FINALES-TRAZADOS</title><path class="cls-1" d="M253.17,81.59a24.59,24.59,0,0,0-42-17.38l-21.3,21.3V61.76L128.15,0H2.83V256H189.91V155L246,99A24.38,24.38,0,0,0,253.17,81.59Zm-113.68,103-20.81,6.94,6.94-20.81,49.3-49.3,13.87,13.87Zm-7-159.29,32.15,32.16H132.49Zm42.62,215.92H17.63V14.81H117.68V72.23h57.43v28.08l-27,27-14.77,14.77L112.72,162.7l-4.93,14.77L95.33,214.85l52.14-17.38,27.64-27.64ZM235.52,88.53l-36.29,36.29-13.87-13.88,36.29-36.28a9.81,9.81,0,1,1,13.87,13.87Z"/></svg>