<svg id="Capa_1" data-name="Capa 1" xmlns="http://www.w3.org/2000/svg" viewBox="0 0 256 256"><defs><style>.cls-1{fill:#10216f;stroke:#001978;stroke-miterlimit:10;}</style></defs><title>icon-tools</title><path class="cls-1" d="M174,132.32A91.73,91.73,0,0,0,74,1.74L60.12,4.47l53.1,63.72-12.23,35-36.66,5.71L11.38,45.39,6.26,58.71A91.74,91.74,0,0,0,117,179.88L181.18,257l57.08-47.56Zm-52.64,32-3.28,1.17a78.31,78.31,0,0,1-102-93.57L58.9,123.32,111,115.21l17.37-49.76L85.19,13.66c2.19-.19,4.39-.28,6.58-.28a78.32,78.32,0,0,1,67.87,117.47l-1.74,3,61.51,73.83-36.52,30.42Z"/></svg>