<svg id="Capa_1" data-name="Capa 1" xmlns="http://www.w3.org/2000/svg" viewBox="0 0 256 256"><defs><style>.cls-1{fill:#10216f;}</style></defs><title>icon-cloud-up</title><path class="cls-1" d="M185.33,155.91V138.67H210.9c16.12,0,29.24-12.9,29.24-28.75A29.66,29.66,0,0,0,212,80.7a45.57,45.57,0,0,1-9.19,26.43l-.68.91L188.37,97.69l.69-.92a28.45,28.45,0,0,0,5.74-17.24,28.78,28.78,0,0,0-28.74-28.75h-.44a60.77,60.77,0,0,1,1.58,13.79v1.15H150V64.58a43.75,43.75,0,0,0-43.7-43.69A44.23,44.23,0,0,0,65.18,49.67,53.15,53.15,0,0,1,91.76,64.15l.8.81L80.38,77.15l-.81-.81A36,36,0,0,0,54,65.73C33.71,65.73,17.24,82,17.24,102S34.05,138.67,54,138.67H64.77v17.24H54a53.7,53.7,0,0,1-6.58-107A60.92,60.92,0,0,1,159,34.09a46.72,46.72,0,0,1,7.06-.54,46.07,46.07,0,0,1,43.08,29.92c.59,0,1.17,0,1.76,0a46.53,46.53,0,0,1,46.48,46.48c0,25.36-20.85,46-46.48,46Z"/><polygon class="cls-1" points="165.39 132.92 154.76 143.44 136.21 125.07 136.21 257.77 121.17 257.77 121.17 125.07 102.62 143.44 91.99 132.92 128.69 96.57 165.39 132.92"/></svg>